<svg xmlns="http://www.w3.org/2000/svg" viewBox="0 0 361.67547 195.92039"><defs><style>.cls-1{fill:#fff;}</style></defs><g id="Layer_2" data-name="Layer 2"><g id="Layer_4" data-name="Layer 4"><path class="cls-1" d="M0,106.80066c2.8638-.574,5.71378-1.54446,8.59408-1.64481,7.50626-.26152,15.053-.56365,22.5341-.08159,13.49.86926,22.18526,8.32822,26.02428,21.30984,1.83092,6.19122,3.74365,12.3655,5.87446,18.45824,1.4509,4.14863,3.53556,8.008,7.2959,10.64773,2.38906,1.67713,3.74079,1.50414,5.02321-1.14324a14.99617,14.99617,0,0,0,1.76648-5.93691c.19259-9.629.04046-19.26422.14073-28.89587.0801-7.6942.67966-15.34806,2.82365-22.79323,3.67972-12.77807,13.9075-20.5177,26.40424-20.01419,14.01189.56458,24.50275,9.09495,26.859,22.46695a126.39332,126.39332,0,0,1,1.77914,19.28562c.26648,13.03084-.03274,26.07233.12765,39.10666a49.274,49.274,0,0,0,3.97237,18.60787c.79195,1.87845,1.75579,3.66278,4.24384,3.79014,2.49487.12772,3.91057-1.37981,5.01366-3.2273,3.13992-5.25876,4.31344-11.16509,4.87116-17.11689.63283-6.75363.9508-13.558.98592-20.34251.11656-22.50928-.019-45.01987.10372-67.52907a53.15393,53.15393,0,0,1,1.33372-11.99558c2.32249-9.70043,11.61213-17.58886,21.56889-18.25716a46.75177,46.75177,0,0,1,13.23245.7159c11.12616,2.50586,18.51815,11.94676,19.10056,23.70883q.462,9.33039.49852,18.68078c.05359,24.21009.00135,48.4204.03272,72.63059.0051,3.93734.69144,7.72562,3.303,10.917,3.899,4.76484,8.818,4.62576,12.56256-.29353,2.618-3.43924,3.01884-7.49719,3.08891-11.51522.23429-13.43272.2604-26.86919.34195-40.30438.04828-7.952.35471-15.86238,3.53149-23.33329,4.44339-10.44958,13.24492-16.10745,24.84833-16.00895a26.69356,26.69356,0,0,1,24.58041,16.37111c3.01765,7.27784,3.14727,14.945,3.16984,22.65474.02767,9.46324-.12,18.94886.50164,28.37913.30657,4.65065,2.01263,9.24734,3.39865,13.77251a5.24635,5.24635,0,0,0,5.1578,3.77384,4.93094,4.93094,0,0,0,4.82392-3.48808,126.75722,126.75722,0,0,0,4.4513-14.76148c1.17234-5.27,1.63756-10.6933,2.5414-16.02765a27.06331,27.06331,0,0,1,22.00465-21.80591,4.43357,4.43357,0,0,1,.72481-.06846c5.424.01979,10.84805.05369,16.27211.06576,5.33413.01187,10.66834.00258,16.00249.00258l.16574.97165c-2.731.9308-5.45559,1.8811-8.19434,2.78861-7.19187,2.38314-14.36885,4.81422-21.59244,7.0976a12.854,12.854,0,0,0-9.40306,10.68785c-1.06446,6.20067-1.4682,12.51561-2.55674,18.711-1.00108,5.69768-1.83538,11.58429-3.98409,16.88463-3.54711,8.74973-10.089,14.46421-20.11425,14.55759-10.72308.1-19.22109-3.91916-23.953-14.12091a48.22246,48.22246,0,0,1-4.22875-20.9884c.11322-11.48614.70955-22.96673.95906-34.45276a55.51244,55.51244,0,0,0-.57652-10.38393c-.90974-5.394-6.526-9.15258-11.89983-8.39769a6.79531,6.79531,0,0,0-6.0214,6.36851,158.09049,158.09049,0,0,0-.79536,16.21049c.10308,14.08438.60554,28.16675.62986,42.25046a70.91047,70.91047,0,0,1-3.13876,22.005c-4.01352,12.43658-14.3742,20.00156-27.30966,20.03365-12.74306.03161-23.0755-7.53731-27.201-19.90305-1.97522-5.92035-2.30356-12.06326-2.31434-18.212-.0463-26.39633.05529-52.793-.04467-79.189A141.03538,141.03538,0,0,0,188.79031,62.309a8.64056,8.64056,0,0,0-2.57039-4.50079c-3.90587-3.9545-8.87046-2.73525-10.48,2.619a26.51921,26.51921,0,0,0-.96491,7.424q-.19743,41.8987-.24485,83.79808c-.01851,7.6874.06851,15.40415-2.26846,22.839-3.49868,11.13076-10.62454,18.52671-22.334,20.88689-15.0115,3.02575-30.31718-6.85455-33.32931-21.86914a106.8213,106.8213,0,0,1-1.94956-18.52983c-.2364-10.51724.18-21.04756.19385-31.57254.01205-9.13378.22672-18.29982-2.17858-27.24407a17.854,17.854,0,0,0-1.11428-3.19191c-.888-1.82137-1.77775-3.79189-4.30225-3.66218a5.57285,5.57285,0,0,0-5.36521,3.88852,65.34225,65.34225,0,0,0-2.408,10.84594,294.1153,294.1153,0,0,0-2.07431,39.72147,66.4002,66.4002,0,0,1-1.10822,12.29c-1.79185,9.882-8.441,15.19228-17.75544,17.3313-14.19091,3.25889-27.72628-3.89839-32.828-17.93837-2.59675-7.14622-3.69547-14.83765-5.45347-22.28684a33.79291,33.79291,0,0,1-.6769-3.56778c-1.17171-9.4-7.89651-12.43558-15.92638-14.47729-7.95739-2.02328-15.75726-4.66608-23.62622-7.03716Zm23.48929,3.36975c1.08849.23177,2.17491.4738,3.26579.6937,9.46563,1.90812,15.79,7.077,17.60828,16.93663.36591,1.98415.6833,3.98095,1.146,5.94292,1.572,6.66525,2.56889,13.55227,4.94278,19.92337,4.2756,11.475,14.28491,16.87092,26.00033,15.00515,8.07981-1.28677,13.22885-6.06139,14.95082-14.079a41.65136,41.65136,0,0,0,.81844-6.96614c.52818-12.52679.68892-25.07735,1.57431-37.57737a96.3178,96.3178,0,0,1,3.42375-18.75328c1.4734-5.31935,8.131-8.344,12.91673-6.67013,3.24593,1.13529,5.01062,3.7358,6.24107,6.726,2.53406,6.15826,3.23739,12.70006,3.3393,19.247.16125,10.35968-.05829,20.72538-.12534,31.08848-.0649,10.032-.2636,20.073,1.69295,29.988a24.09863,24.09863,0,0,0,23.34828,19.28439,22.99568,22.99568,0,0,0,22.19161-16.51019,61.53594,61.53594,0,0,0,2.50722-16.92344c.25693-28.25653.09844-56.51658.19122-84.77508a90.62429,90.62429,0,0,1,.9594-12.32279c.91974-6.5174,6.972-11.09146,13.03663-9.73462,5.21113,1.16587,8.91362,4.5725,10.0303,9.80591A69.94538,69.94538,0,0,1,195.055,74.67366c.135,28.663-.04,57.32786.182,85.98982a48.23225,48.23225,0,0,0,2.41055,14.72142c3.35827,10.02246,11.95507,15.53421,22.375,15.25735,10.65783-.28316,18.901-6.16684,21.81926-16.36808a70.90319,70.90319,0,0,0,2.777-16.42156c.41488-10.10046.04469-20.23215.04871-30.35081.00413-10.4319-.17989-20.8724.1885-31.2925.23222-6.56857,4.12478-10.89884,9.67855-12.10695a15.87655,15.87655,0,0,1,18.24954,11.17777,28.68756,28.68756,0,0,1,.97332,7.909c-.25224,9.46292-.78125,18.91808-1.15,28.37835-.36372,9.3302-.23116,18.63579,3.07079,27.53885,3.32938,8.977,9.88753,12.95393,19.969,13.11737,7.47516.1212,14.29744-6.03172,16.53014-13.41606a83.135,83.135,0,0,0,2.52423-11.80809c.9748-6.55085,1.46161-13.17688,2.51752-19.71248,1.424-8.81362,6.64937-14.31207,15.38772-16.38827.99957-.23749,1.99187-.50537,2.98756-.75918a17.65639,17.65639,0,0,0-4.31469.12277c-10.10691,1.1107-17.64755,7.75119-19.64413,17.675-1.16152,5.77317-1.80867,11.64785-2.83193,17.45134-1.01191,5.739-2.20212,11.46824-5.54891,16.40716-4.62419,6.824-13.45724,6.66585-17.57208-.4807a33.57717,33.57717,0,0,1-3.45046-9.24359c-2.40188-10.58844-1.96139-21.35921-1.845-32.13176a111.30231,111.30231,0,0,0-1.293-20.49639,21.20887,21.20887,0,0,0-21.05691-17.74024c-10.78751.08382-18.54391,5.0916-21.66328,16.79872-2.06991,7.76839-1.80059,15.69653-1.845,23.62764q-.10533,18.80985-.58974,37.61663a18.35258,18.35258,0,0,1-6.22529,13.75915c-4.69123,4.14614-10.67863,4.3316-15.50115.4659a15.3154,15.3154,0,0,1-5.76438-8.48816,48.18764,48.18764,0,0,1-1.36884-10.288c-.07874-24.69554.05072-49.39165.01462-74.08744-.00792-5.41435-.246-10.8417-.67742-16.23913-.72428-9.06135-6.63194-16.04694-15.56081-17.83713a40.05612,40.05612,0,0,0-12.01366-.31462,19.17636,19.17636,0,0,0-16.24866,14.69347,57.078,57.078,0,0,0-1.12445,11.78565c-.09926,23.40017.08468,46.80218-.12881,70.20082a186.79885,186.79885,0,0,1-1.73651,21.72787,33.33256,33.33256,0,0,1-5.4057,15.16842c-2.94906,4.216-7.17407,5.74857-11.60518,4.26283-2.81139-.94262-4.50239-3.09667-5.69235-5.65281a50.866,50.866,0,0,1-4.71414-20.40773c-.30712-13.67718.04748-27.36818-.15746-41.0492a117.79831,117.79831,0,0,0-1.46721-16.6416c-1.77719-11.19889-10.54636-18.79542-22.05956-19.10773-9.12056-.2474-18.69226,4.45047-21.59037,16.87171a90.94054,90.94054,0,0,0-2.38992,17.234c-.38049,10.43141.01455,20.88909-.20808,31.32956a22.38782,22.38782,0,0,1-1.88943,8.40455c-3.16132,7.10743-8.63271,8.07-14.52805,2.92851a24.99206,24.99206,0,0,1-7.17863-10.80585c-2.57076-7.39176-4.80925-14.89832-7.28685-22.32347a20.608,20.608,0,0,0-11.149-12.797A30.97691,30.97691,0,0,0,23.48929,110.17041Z"/><path class="cls-1" d="M180.46632.05183c10.51587-.00018,18.06643,7.13651,18.07948,17.08848A18.3982,18.3982,0,0,1,180.37317,35.4428c-9.37088-.04016-17.574-8.52083-17.70245-18.07128C162.572,10.03479,169.74235-.84249,180.46632.05183Zm.089,5.07837a12.39077,12.39077,0,0,0-12.68566,12.10433c-.04535,7.00921,5.74739,13.04213,12.54126,13.06128A13.2343,13.2343,0,0,0,193.494,17.1645C193.48367,10.03423,188.2633,5.17878,180.55531,5.1302Z"/><path class="cls-1" d="M87.18805,56.1848c.39453-8.47177,7.5175-17.69025,20.16443-17.23772a16.4038,16.4038,0,0,1,15.7778,16.9019c-.35329,9.726-8.477,17.55242-17.96493,17.3073C95.19164,72.89863,86.94835,65.11653,87.18805,56.1848ZM106.4,44.118a13.27309,13.27309,0,0,0-14.21,12.55361c-.00443,6.08526,6.48671,11.489,13.43432,11.40174a12.60281,12.60281,0,0,0,12.355-12.92044C117.92159,48.69418,113.05738,44.0587,106.4,44.118Z"/><path class="cls-1" d="M274.34124,55.32055c-.01841,9.6407-9.04184,18.45208-18.29526,17.86538-10.62584-.6737-18.79-9.80664-17.61186-19.7018.719-6.03922,6.74823-12.38921,12.85-13.63441,6.6536-1.35781,12.86708-.88318,18.10257,4.04456A15.11712,15.11712,0,0,1,274.34124,55.32055Zm-17.31648-11.111c-7.48578.02339-13.74062,5.20318-13.77235,11.40519-.03219,6.2896,6.62858,12.4832,13.40866,12.46824,6.57408-.01449,12.66018-6.19135,12.65262-12.84128C269.30666,49.05691,263.88322,44.18811,257.02476,44.20955Z"/></g></g></svg>